<svg xmlns="http://www.w3.org/2000/svg" width="512" height="512" viewBox="0 0 48 48" fill="none">
  <g stroke="#000000" stroke-width="1.4" stroke-linecap="round" stroke-linejoin="round">
    <!-- chip body -->
    <rect x="16" y="16" width="16" height="16" rx="1.4"/>
    <rect x="19.5" y="19.5" width="9" height="9" rx="0.6"/>

    <!-- top pins -->
    <path d="M20 16V9L17 6"/>
    <circle cx="15" cy="4" r="1.2"/>
    <path d="M24 16V8"/>
    <circle cx="24" cy="4" r="1.2"/>
    <path d="M28 16V9L31 6"/>
    <circle cx="33" cy="4" r="1.2"/>

    <!-- right pins -->
    <path d="M32 20H39L42 17"/>
    <circle cx="44" cy="15" r="1.2"/>
    <path d="M32 24H40"/>
    <circle cx="44" cy="24" r="1.2"/>
    <path d="M32 28H39L42 31"/>
    <circle cx="44" cy="33" r="1.2"/>

    <!-- bottom pins -->
    <path d="M28 32V39L31 42"/>
    <circle cx="33" cy="44" r="1.2"/>
    <path d="M24 32V40"/>
    <circle cx="24" cy="44" r="1.2"/>
    <path d="M20 32V39L17 42"/>
    <circle cx="15" cy="44" r="1.2"/>

    <!-- left pins -->
    <path d="M16 20H9L6 17"/>
    <circle cx="4" cy="15" r="1.2"/>
    <path d="M16 24H8"/>
    <circle cx="4" cy="24" r="1.2"/>
    <path d="M16 28H9L6 31"/>
    <circle cx="4" cy="33" r="1.2"/>

    <!-- corner diagonals for fuller look -->
    <path d="M16 18H12L8 14"/>
    <circle cx="6" cy="12" r="1.2"/>
    <path d="M32 18H36L40 14"/>
    <circle cx="42" cy="12" r="1.2"/>
    <path d="M16 30H12L8 34"/>
    <circle cx="6" cy="36" r="1.2"/>
    <path d="M32 30H36L40 34"/>
    <circle cx="42" cy="36" r="1.2"/>
  </g>
</svg>
